<?xml version="1.0" encoding="UTF-8" standalone="no"?>
<!-- Created with Inkscape (http://www.inkscape.org/) -->

<svg
   xmlns:dc="http://purl.org/dc/elements/1.1/"
   xmlns:cc="http://creativecommons.org/ns#"
   xmlns:rdf="http://www.w3.org/1999/02/22-rdf-syntax-ns#"
   xmlns:svg="http://www.w3.org/2000/svg"
   xmlns="http://www.w3.org/2000/svg"
   xmlns:sodipodi="http://sodipodi.sourceforge.net/DTD/sodipodi-0.dtd"
   xmlns:inkscape="http://www.inkscape.org/namespaces/inkscape"
   width="157.80081mm"
   height="121.75862mm"
   viewBox="0 0 157.80081 121.75862"
   version="1.1"
   id="svg8"
   inkscape:version="0.92.2 (5c3e80d, 2017-08-06)"
   sodipodi:docname="ic_camara.svg">
  <defs
     id="defs2" />
  <sodipodi:namedview
     id="base"
     pagecolor="#ffffff"
     bordercolor="#666666"
     borderopacity="1.0"
     inkscape:pageopacity="0.0"
     inkscape:pageshadow="2"
     inkscape:zoom="0.7"
     inkscape:cx="415.81792"
     inkscape:cy="209.2779"
     inkscape:document-units="mm"
     inkscape:current-layer="layer1"
     showgrid="false"
     inkscape:window-width="1366"
     inkscape:window-height="705"
     inkscape:window-x="-8"
     inkscape:window-y="-8"
     inkscape:window-maximized="1" />
  <metadata
     id="metadata5">
    <rdf:RDF>
      <cc:Work
         rdf:about="">
        <dc:format>image/svg+xml</dc:format>
        <dc:type
           rdf:resource="http://purl.org/dc/dcmitype/StillImage" />
        <dc:title></dc:title>
      </cc:Work>
    </rdf:RDF>
  </metadata>
  <g
     inkscape:label="Capa 1"
     inkscape:groupmode="layer"
     id="layer1"
     transform="translate(-19.588032,-86.163147)">
    <path
       style="fill:none;stroke:#ffffff;stroke-width:10;stroke-linecap:round;stroke-linejoin:round;stroke-miterlimit:4;stroke-dasharray:none;stroke-opacity:1"
       d="m 24.588796,124.07661 c -0.08872,-15.94654 8.274552,-13.78617 18.174329,-13.63074 0.193928,-4.10423 -1.277737,-10.26226 5.34539,-10.15624 h 12.561668 c 7.26309,0.13647 5.797359,5.39015 5.879928,10.15624 h 18.976136 l 9.621705,-14.432555 c 1.906246,-3.118493 4.610203,-5.239846 9.354438,-4.81085 l 31.00326,0.267269 c 3.23802,0.250895 6.46525,0.663641 9.35443,6.147199 l 7.34991,12.828937 11.35896,-0.13364 c 6.70752,0.25385 8.70069,4.90684 8.81989,8.15172 l -0.26727,75.90455 c 0.17774,7.42335 -5.47893,8.412 -7.75081,8.28536 l -130.427531,0.26726 c -4.123974,0.02 -9.365277,-0.87995 -9.354432,-7.48354 z"
       id="path43-7"
       inkscape:connector-curvature="0"
       sodipodi:nodetypes="cccccccccccccccccc" />
    <path
       style="fill:#ffffff;fill-opacity:1;stroke:#343a40;stroke-width:4;stroke-linecap:round;stroke-linejoin:round;stroke-miterlimit:4;stroke-dasharray:none;stroke-opacity:1"
       d="m 24.588796,124.07661 c -0.08872,-15.94654 8.274552,-13.78617 18.174329,-13.63074 0.193928,-4.10423 -1.277737,-10.26226 5.34539,-10.15624 h 12.561668 c 7.263089,0.13647 5.797359,5.39015 5.879929,10.15624 h 18.976135 l 9.621705,-14.432556 c 1.906245,-3.118493 4.610202,-5.239846 9.354438,-4.81085 l 31.00326,0.267269 c 3.23802,0.250895 6.46525,0.663641 9.35443,6.147199 l 7.34991,12.828938 11.35896,-0.13364 c 6.70752,0.25385 8.70069,4.90684 8.81989,8.15172 l -0.26727,75.90455 c 0.17774,7.42335 -5.47894,8.412 -7.75081,8.28536 l -130.427531,0.26726 c -4.123974,0.02 -9.365277,-0.87995 -9.354432,-7.48354 z"
       id="path43"
       inkscape:connector-curvature="0"
       sodipodi:nodetypes="cccccccccccccccccc" />
    <path
       style="fill:none;stroke:#343a40;stroke-width:5.5;stroke-linecap:round;stroke-linejoin:round;stroke-miterlimit:4;stroke-dasharray:none;stroke-opacity:1"
       d="M 38.364583,131.8244 H 65.767857"
       id="path47"
       inkscape:connector-curvature="0" />
    <circle
       style="fill:#ffffff;fill-opacity:1;stroke:#343a40;stroke-width:5;stroke-linecap:round;stroke-linejoin:round;stroke-miterlimit:4;stroke-dasharray:none;stroke-opacity:1"
       id="path51"
       cx="119.06249"
       cy="154.31398"
       r="34.931641" />
  </g>
</svg>
